<?xml version="1.0" encoding="UTF-8"?>
<svg id="Capa_2" data-name="Capa 2" xmlns="http://www.w3.org/2000/svg" viewBox="0 0 1789 672.5">
  <defs>
    <style>
      .cls-1 {
        fill: #5c2582;
      }
    </style>
  </defs>
  <path class="cls-1" d="m126.34,453.35c.08.02.16.04.24.08-.08-.04-.17-.07-.25-.09,0,0,0,0,0,0Z"/>
  <path class="cls-1" d="m104.09,376.46c-.05.27-.11.54-.17.81-.02.11-.04.21-.06.31,1.23-4.67.67-3.15.22-1.12Z"/>
  <path class="cls-1" d="m1701.88,379.75c-.58,2.51-.57,2.76-.42,2.19.12-.66.26-1.31.39-1.96.01-.08.02-.16.03-.23Z"/>
  <path class="cls-1" d="m1689.89,405.59c-.54.63-.38.46,0,0h0Z"/>
  <path class="cls-1" d="m123.86,328.66c4.34-4.14,1.53-1.88,0,0h0Z"/>
  <path class="cls-1" d="m1738.55,344.31c-13.07-34.71-40.59-61.32-69.3-83.66-39.83-30.98-83.34-56.44-129.09-77.64-55.39-25.66-113.22-45.8-172.09-61.8-70.43-19.14-142.29-32.4-214.6-42.08-84.01-11.25-168.66-17.25-253.38-19.38-92.83-2.33-186.42-1.75-278.84,8.06-74.09,7.87-147.78,21.25-219.07,43.16-52.65,16.18-104.24,36.91-152.66,63.25-33.34,18.14-65.08,39.18-94.36,63.36-14.61,12.07-28.76,25.03-41.07,39.48-1.54,1.81-3.04,3.66-4.51,5.53-21.77,19.31-37.97,46.05-44.53,74.44-7.66,33.16-2.74,67.17,12.6,97.4,19.07,37.56,53.49,66.07,89.59,86.45,55.96,31.6,119.94,48.14,182.96,58.26,89.91,14.43,181.87,17.29,272.78,18.53,91.8,1.25,183.64-1.14,275.3-6.29,84.62-4.76,169.11-11.87,253.34-21.19,70.99-7.86,141.85-17.21,212.36-28.61,59.02-9.55,118.17-20.08,175.86-35.96,38.54-10.61,76.83-23.56,112.64-41.48,28.69-14.35,56.51-32.87,75.28-59.36,16.49-23.27,20.88-53.69,10.79-80.48ZM158.7,485.3c.76.58.53.4,0,0h0Zm-2.02-1.52c.82.62,1.38,1.04,1.78,1.34-.59-.45-1.18-.89-1.78-1.34Zm1544.53-100.57c-.63,2.69-1.64,5.23-2.39,7.87,0,.03-.01.05-.02.07,0,.01-.01.02-.02.04-.69,1.22-1.24,2.54-1.91,3.78-1.61,2.99-3.48,5.8-5.37,8.61-.28.42-1.12,1.43-1.6,2.01.25-.3.65-.76,1.25-1.46-1,1.17-1.96,2.37-2.98,3.53-2.11,2.39-4.32,4.69-6.61,6.9-2.4,2.32-4.88,4.55-7.43,6.69-.9.76-1.82,1.49-2.74,2.23.17-.19-3.58,2.7-4.13,3.09-12.77,9.13-26.55,16.8-40.67,23.61-3.86,1.86-7.75,3.66-11.66,5.4-5.16,2.29-4.85,2.15-9.24,3.93-9.27,3.76-18.65,7.25-28.1,10.52-19.29,6.68-38.87,12.49-58.6,17.7-29.41,7.76-59.16,14.1-89.02,19.82-57.58,11.01-115.57,19.95-173.66,27.83-.14.02-3.68.49-4.12.55-1.66.22-3.31.44-4.97.66-4.26.56-8.52,1.12-12.79,1.67-9.44,1.22-18.89,2.41-28.34,3.57-18.92,2.32-37.85,4.52-56.79,6.61-39.59,4.36-79.23,8.23-118.91,11.6-176.46,14.98-354.2,21.02-531.13,11.55-79.25-4.24-154.93-10.84-231.2-33.97-13.76-4.17-27.37-8.87-40.72-14.23-1.25-.5-2.49-1.02-3.74-1.53,3.17,1.29-1.27-.53-2-.85-2.96-1.28-5.9-2.6-8.82-3.96-6.04-2.8-12.01-5.77-17.89-8.91-10.1-5.4-19.92-11.33-29.32-17.89-1.96-1.37-3.9-2.76-5.82-4.19-.37-.27-.73-.55-1.09-.82-.52-.4-1.29-.99-1.67-1.3-4.05-3.33-8.05-6.69-11.88-10.26-3.34-3.11-6.58-6.34-9.69-9.69-1.47-1.58-6.65-9.57-8.82-10.57,1.29.66,2.64,3.89.41.81-.22-.3-.44-.6-.66-.9-.03,0-.06-.03-.09-.03.03,0,.05.02.08.02-.39-.53-.78-1.06-1.16-1.59-1.18-1.65-2.33-3.32-3.44-5.02-2.15-3.29-4.18-6.66-6.05-10.11-1.7-3.12-3.13-6.35-4.68-9.53-.21-.52-.42-1.04-.62-1.56-.75-1.96-1.44-3.94-2.09-5.94-1.08-3.35-2.02-6.74-2.8-10.16-.39-1.68-.73-3.37-1.05-5.06-.09-.49-.17-.98-.25-1.47-.01.11-.02.21-.03.33.01-.12.01-.25.02-.38-.06-.34-.11-.67-.17-1.01-.33-1.86.14-3.24.29-2.12-.04-5.36-1.15-11.07-.89-16.36.08-1.63.19-3.25.34-4.87.02-.27.07-.58.12-.9-.07.27-.15.55-.23.86.1-.39.2-.78.28-1.18.05-.27.11-.54.17-.81.54-2.73.82-5.56,1.45-8.26,1.19-5.16,3.33-10.05,4.94-15.05-.09-.06.3-1.89.87-3.12.03-.07.07-.14.1-.22.04-.16.09-.31.13-.47-.04.15-.07.28-.1.42.62-1.34,1.25-2.67,1.92-3.98,1.53-3.03,3.18-5.99,4.95-8.89,1.63-2.66,3.35-5.26,5.17-7.79.1-.14.22-.29.34-.44-.12.12-.22.21-.36.34,1.09-1.03,1.97-2.45,2.94-3.61,3.99-4.71,8.33-9.11,12.95-13.2,1.41-1.25,2.55-2.71,3.46-4.28.5-.61,1-1.22,1.52-1.82,4.7-5.47,9.69-10.68,14.83-15.74,8.2-8.08,16.8-15.74,25.67-23.07,2.66-2.2,5.34-4.36,8.05-6.5.33-.26.74-.64,1.16-1.04-.12.13-.25.26-.38.41,1.43-1.53,3.6-2.74,5.28-4,6.85-5.12,13.83-10.08,20.92-14.87,16.42-11.1,33.42-21.33,50.82-30.8,9.83-5.35,19.8-10.45,29.87-15.32,5.37-2.6,10.78-5.13,16.22-7.6,2.8-1.27,5.61-2.53,8.43-3.77,1.43-.63,2.86-1.25,4.3-1.87.52-.23,2.7-1.15,3.73-1.59,56.64-23.66,115.84-40.9,175.94-53.21,79.63-16.31,158.51-23.22,241.03-25.28,90.18-2.26,180.51-.8,270.5,5.7,77.37,5.59,148.77,14.15,224.26,28.52,63.96,12.17,127.33,28.03,188.9,49.27,13.29,4.59,26.5,9.43,39.6,14.55,6.32,2.47,12.62,5.01,18.89,7.62.58.24,3.65,1.55,3.11,1.32.87.37,1.74.74,2.61,1.12,3.52,1.52,7.03,3.06,10.53,4.62,23.17,10.36,45.9,21.73,67.92,34.35,20.31,11.64,40.03,24.33,58.82,38.3,1.77,1.32,3.53,2.67,5.3,3.99,0,0,0,0,0,0,.99.79,1.99,1.56,2.99,2.35,8.25,6.55,16.25,13.4,23.8,20.74,6.13,5.96,12.07,12.22,17.36,18.96-.1-.08,2.23,3.09,2.31,3.2,1.1,1.57,2.17,3.16,3.21,4.77,2.26,3.52,4.34,7.15,6.2,10.9.27.56,1.51,3.4,1.45,3.14.31.81.6,1.61.88,2.43,1,2.89,1.83,5.84,2.47,8.83.12.55.21,1.09.31,1.64.09.59.31,2.13.32,2.8.03,2.8.04,5.55-.06,8.35,0,.13-.02.27-.03.42.04-.18.08-.36.13-.56-.06.26-.1.53-.16.79-.1.72-.28,1.55-.39,1.96-.08.42-.15.84-.25,1.26Zm.53-14.57c.13.75.26,1.49.39,2.24-.18-1.06-.31-1.78-.39-2.24Z"/>
  <path class="cls-1" d="m111.47,349.76s-.02.03-.02.05c-.29,1.12-.61,2.23-.97,3.34.06.04.36-.81.99-3.39Z"/>
  <path class="cls-1" d="m104.3,399.73c0,1.06-.02,2.1-.11,3.12,0,.02,0,.03,0,.05.17-1.67.17-2.67.11-3.17Z"/>
</svg>