<?xml version="1.0" encoding="UTF-8"?>
<svg id="Capa_2" data-name="Capa 2" xmlns="http://www.w3.org/2000/svg" viewBox="0 0 1803.74 611.56">
  <defs>
    <style>
      .cls-1 {
        fill: #ef7d00;
      }
    </style>
  </defs>
  <path class="cls-1" d="m1647.42,143.46c-24.45-5.58-49.22-9.47-73.9-13.82-33.36-5.88-66.28-14.27-99.53-20.79-41.59-8.16-83.37-15.29-125.29-21.53-173.4-25.6-349.14-36.93-524.36-30.11-174.06,6.77-347.61,31.32-516.69,73.28-41.78,10.37-83.24,22.09-124.04,35.83-27.2,9.16-54.93,16.97-81.21,28.63-19.64,8.72-41.29,21.52-53.05,39.91-9.75,4.97-16.48,15.22-19.27,25.6-4.77,17.77.92,36.58,10.43,51.75,16.85,26.88,44.11,46.57,70.88,62.61,1.46.87,2.94,1.71,4.41,2.57,55.53,45.32,121.79,77.08,188.62,101.8,105.08,38.88,216.44,59.76,327.76,70.08,114.78,10.65,229.8,8.63,344.48-.11,82.66-.13,165.31-5.12,247.35-15.21,81.6-10.04,162.62-24.85,242.26-45.32,56.86-14.61,113.09-31.98,167.91-53.02,30.4-11.66,60.95-24.03,89.68-39.45,11.11-5.96,18.31-12.24,21.1-25.08,4.54-20.85-3.96-42.19-16.01-58.95-4.76-6.62-10-12.86-15.61-18.78,17.53-19.51,33.56-42.44,36.28-68.83,5.67-54.84-61.11-71.69-102.21-81.07Zm-506.93,364.94c-51.96,6.82-104.18,12.53-156.54,16.71-71.96.36-143.94-2.93-215.58-9.76-115.69-11.03-230.9-31.17-344.19-56.97-76.24-17.36-152.46-37.76-225.01-67.25-22.48-9.14-45.61-19.87-67.25-32.13-1.01-.57-2.01-1.16-3.01-1.74-1.6-1.34-3.23-2.72-4.94-4.19-9.53-8.21-18.66-16.91-27.09-26.25-1.97-2.18-3.9-4.4-5.79-6.66-.73-.87-1.46-1.75-2.17-2.64-.39-.49-2.23-2.86-2.38-3.03-2.76-3.68-5.41-7.44-7.88-11.33-2.48-3.91-4.78-7.92-6.84-12.07-.74-1.49-1.43-3-2.11-4.52.37.75-1.43-3.67-1.78-4.72-1.22-3.57-2.08-7.19-2.87-10.87-.13-.61-.22-1.01-.3-1.27,0-.23,0-.59-.02-1.1-.07-1.7-.21-3.39-.19-5.1.02-1.48.18-2.94.26-4.41-.18,3.35-.09.33.45-1.96.21-.9.5-1.78.79-2.65,15.8-4.52,31.69-8.76,47.58-12.95,47.32-12.48,94.88-24.09,142.59-35,68.57-15.69,137.48-29.91,206.68-42.52,81.08-14.77,162.57-27.37,244.43-36.92,85.94-10.02,172.33-16.84,258.85-18.51,81.89-1.58,164.34,1.11,245.5,12.77,92.41,13.28,182.54,40.93,270.09,72.8,64.26,23.39,130.02,50.27,185.5,91.05,3.77,2.77,7.72,5.84,11.78,9.22-2.01,1.92-4.01,3.8-5.98,5.65-45.12,42.35-95.67,77.12-151.07,104.69-118.47,58.96-251.16,86.55-381.53,103.65Zm-764.2-30.68c-29.22-8.62-58.32-18.41-86.8-29.74,88.83,26.95,180.04,46.06,271.36,62.25,40.41,7.17,80.93,13.53,121.55,18.94-103.45-6.48-206.61-22.11-306.11-51.44Zm1343.9-107.1c1.67-1.53,1.6-.95,0,0h0Zm-2.82-31.16c.28.57.52,1.17.81,1.74h0c.79,2.09,1.58,4.16,2.21,6.31.62,2.12,1.01,4.27,1.51,6.42.02.08.03.13.05.2.05.88.18,1.76.22,2.64.09,1.7.05,3.38,0,5.07-.02.59-.13,1.19-.17,1.79-.63,2.34-1.38,4.67-1.98,7,1.09-4.22-.14-1.48-.88.59-2.4,1.38-4.77,2.8-7.21,4.12-10.36,5.57-21.03,10.58-31.75,15.42-3.84,1.73-7.69,3.43-11.55,5.11-1.95.84-3.9,1.68-5.85,2.52-.27.11-1.44.61-2.05.87-.62.26-2.12.89-2.58,1.08-9.7,4.04-19.46,7.94-29.27,11.71-23.74,9.13-47.75,17.55-71.94,25.37-55.42,17.92-111.84,32.75-168.81,44.92,25.72-7.74,51.16-16.41,76.22-26.18,62.16-24.23,121.94-55.09,174.97-95.82,19.95-15.32,39.39-31.81,57.33-49.57,3.3,3.46,6.47,7.03,9.52,10.74.09.11.16.19.23.27.54.73,1.09,1.45,1.62,2.19.99,1.37,1.96,2.77,2.9,4.19,1.66,2.51,3.21,5.09,4.64,7.74.63,1.18,1.22,2.37,1.81,3.57Zm5.91-105.49c-5.14,16.02-15.44,30.28-27.14,43.14-22.79-19.41-49.39-34.98-75.2-48.67-83.57-44.33-175.02-74.14-265.62-100.25-79.67-22.96-160.97-35.66-243.68-40.83-86.73-5.41-173.84-3.55-260.49,2.33-87.5,5.94-174.69,16.14-261.42,29.06-78.98,11.77-157.61,25.93-235.82,42.02-61.29,12.61-122.34,26.39-183.09,41.39-20.61,5.09-41.2,10.31-61.74,15.72,6.46-2.91,12.98-5.45,19.15-7.78,28.26-10.65,57.5-19.57,86.29-28.66,79.6-25.12,161.28-43.36,243.23-58.94,83.49-15.87,167.79-27.26,252.48-34.34,168.85-14.12,338.63-10.8,507.1,6.62,41.77,4.32,83.44,9.52,124.99,15.66,41.92,6.24,83.7,13.37,125.29,21.53,32.74,6.42,65.16,14.69,98,20.52,23.85,4.24,47.79,7.97,71.46,13.2,23.08,5.1,47.32,10.85,67.99,22.74,7.1,4.09,13.6,8.97,17.16,14.88,1.66,2.75,3.22,7.43,3.63,12.49.5,6.22-.68,12.24-2.57,18.14Z"/>
</svg>