<?xml version="1.0" encoding="UTF-8"?>
<svg id="Capa_2" data-name="Capa 2" xmlns="http://www.w3.org/2000/svg" viewBox="0 0 1703.32 1779.91">
  <defs>
    <style>
      .cls-1 {
        fill: #aebd12;
      }
    </style>
  </defs>
  <path class="cls-1" d="m1589.04,1138.66c-14.72-22.21-32.74-42.77-52.04-61.17-44.42-42.52-90.74-82.88-135.67-124.76-102.93-95.57-107.12-131.48-25-243.68,44.17-60.28,92.01-117.9,136.05-178.32,27.16-37.31,46.96-78.81,53.3-114.48,4.82-54.32-21.96-49.62-51.53-45.31-94.04,13.96-176.29,65.23-269.44,82.37-120.7,22.34-191.9-19.54-225.02-138.72-16.37-58.89-27.79-119.17-44.93-177.81-9.39-31.86-11.55-83.76-43.79-86.43-40.49-3.3-44.93,49.88-58.13,81.48-34.65,82.75-56.35,170.96-105.97,247.23-42.64,65.62-72.34,76.02-145.19,48.23-32.11-12.31-62.82-28.68-93.41-44.42-58-29.95-116.89-57.87-180.47-74.75-56.48-14.98-59.52-12.18-49.37,44.8,18.28,103.31,67.9,194.31,112.45,287.46,48.61,101.53,41.88,127.93-52.54,187.58-34.01,21.45-70.95,38.07-105.59,58.63-32.87,19.54-65.36,40.23-96.46,62.44-34.39,24.62-36.17,48.86,7.36,64.98,55.72,20.56,112.45,38.71,168.16,59.52,80.72,30.21,90.11,51.65,50.89,128.18-33.25,64.6-71.58,126.66-105.85,190.75-8.63,16.12-23.99,37.19-11.93,53.3,13.45,18.15,36.68,2.92,53.43-1.9,95.95-27.67,191.26-57.37,286.7-86.81,94.43-29.06,96.33-27.92,132.88,65.87,34.65,88.97,61.93,181.62,121.97,258.4,50.89,64.98,87.7,60.16,119.81-15.1,27.41-64.22,32.24-133.52,42.64-201.41,24.75-161.69,83.89-220.83,245.71-237.21,95.69-9.65,191.9-14.34,287.72-22.59,51.91-4.44,61.68-23.86,33.51-66.5l-.25.13v.02h0Z"/>
</svg>