<?xml version="1.0" encoding="UTF-8"?>
<svg id="Capa_2" data-name="Capa 2" xmlns="http://www.w3.org/2000/svg" viewBox="0 0 2000 435">
  <defs>
    <style>
      .cls-1 {
        fill: #341f07;
      }
    </style>
  </defs>
  <path class="cls-1" d="m1469.95,279.17c.03-19.13,5.57-37.26,10.48-55.5,4-14.81,7.6-29.66,9.56-44.97,2.59-20.15-2.56-37.36-16.83-51.89-6.92-7.03-14.37-13.69-19.2-22.42-6.45-11.68-2.61-22.76,10.87-32.11,12.54-8.7,21.87-7.81,31.12,2.98,11.68,13.64,19.2,14.68,34.8,4.89,23.57-14.81,46.25-12.23,65.16,8.02,11.44,12.23,20.15,26.31,24.95,42.43,2.77,9.28,2.95,18.71-1.05,27.75-5.88,13.3-18.24,16.85-30.05,8.18-10.5-7.71-21.09-16.23-34.15-7.05-14.34,10.06-20.22,24.98-18.29,42.3.78,6.95,3.34,13.74,5.2,20.56,6.79,25.06,9.01,50.43,3.55,75.96-4.78,22.37-20.35,37.42-37.29,37.15-17.17-.26-31.64-15.1-37.08-37.52-1.52-6.22-1.83-12.44-1.8-18.76h.03Z"/>
  <path class="cls-1" d="m1134.93,100.66c6.9-7.55,12.46-14.87,19.23-20.8,13.3-11.65,26.99-10.27,35.98,4.73,12.8,21.37,26.08,42.15,42.54,61.04,8.88,10.19,5.96,23.46-5.85,31.75-16.8,11.76-36.03,13.4-55.76,11.26-8.1-.86-6.27-6.53-4.26-11.55,4.94-12.49,9.3-25.08,10.87-38.51,1.07-9.2.55-17.85-9.75-21.56-10.27-3.71-17.85,1.59-23.46,9.33-10.14,13.93-11.81,30.78-14.32,47.01-6.04,38.77-4.26,77.84-2.43,116.85.73,15.68,8.13,26.91,24.19,31.2,2.27.6,4.6,1.36,6.58,2.59,3.34,2.04,7.68,4.42,6.3,8.88-1.23,3.97-5.88,3.16-9.41,3.11-30.13-.52-60.23-1.12-90.35-1.59-10.5-.16-12.49-4.7-9.88-14.5,15.86-59.29,31.2-118.73,46.82-178.09,1.33-5.07,3.32-10.09-1.65-14.11-5.43-4.42-9.56-.1-13.77,2.64-8.75,5.67-17.87,10.58-28.77,8.99-11.16-1.62-13.43-7.24-6.04-15.68,12.36-14.08,21.95-29.84,30.13-46.53,2.95-6.04,6.14-11.94,11.31-16.49,6.74-5.91,14.74-7.92,23.25-5.59,8.41,2.3,9.35,10.19,10.24,17.11,1.25,9.75,2.12,19.49,8.23,28.56v-.03Z"/>
  <path class="cls-1" d="m797.22,97.16c-9.69-14.79-26.89-20.48-45.36-15.62-17.69,4.65-31.04,15.83-41.91,29.63-39.69,50.43-54.71,108.54-50.9,171.59,1.57,26.02,21.22,38.83,46.77,33.18,21.03-4.65,37.47-16.33,50.74-32.84,3.21-4,6.19-8.2,9.48-12.12,1.83-2.17,4.31-1.65,6.43-.29,2.38,1.54.84,3.34.1,5.1-15.49,36.63-73.13,66.21-112.17,57.51-24.85-5.54-43.11-25.76-44.39-53.41-3.29-71.85,21.61-132.99,75.56-181.1,25.55-22.78,56.65-31.75,90.61-22.86,28.19,7.37,39.22,33,26.15,57.04-1.31,2.4-2.87,4.73-4.65,6.82-9.93,11.68-28.17,14.92-37.08,6.69-9.25-8.49-6.69-25.34,5.43-36.63,7.05-6.61,15.83-10.03,25.14-12.7l.03.03Z"/>
  <path class="cls-1" d="m1900.76,243.95c-3.03-4.57-6.74-8.81-10.71-12.59-9.14-8.75-18.68-17.06-27.93-25.68-21.19-19.67-22.05-27.07-5.15-50.17,9.09-12.41,18.94-24.27,28.01-36.71,5.59-7.68,9.67-16.23,10.97-23.57.99-11.18-4.52-10.22-10.61-9.33-19.36,2.87-36.29,13.43-55.47,16.96-24.85,4.6-39.51-4.02-46.33-28.56-3.37-12.12-5.72-24.53-9.25-36.61-1.93-6.56-2.38-17.24-9.01-17.79-8.33-.68-9.25,10.27-11.97,16.77-7.13,17.04-11.6,35.2-21.82,50.9-8.78,13.51-14.89,15.65-29.89,9.93-6.61-2.53-12.93-5.91-19.23-9.14-11.94-6.17-24.06-11.91-37.15-15.39-11.63-3.08-12.25-2.51-10.16,9.22,3.76,21.27,13.98,40,23.15,59.18,10.01,20.9,8.62,26.34-10.82,38.62-7,4.42-14.61,7.84-21.74,12.07-6.77,4.02-13.46,8.28-19.86,12.86-7.08,5.07-7.45,10.06,1.52,13.38,11.47,4.23,23.15,7.97,34.62,12.25,16.62,6.22,18.55,10.63,10.48,26.39-6.85,13.3-14.74,26.08-21.79,39.27-1.78,3.32-4.94,7.66-2.46,10.97,2.77,3.74,7.55.6,11-.39,19.75-5.7,39.38-11.81,59.02-17.87,19.44-5.98,19.83-5.75,27.36,13.56,7.13,18.32,12.75,37.39,25.11,53.2,10.48,13.38,18.05,12.38,24.67-3.11,5.64-13.22,6.64-27.49,8.78-41.47,5.1-33.29,17.27-45.46,50.58-48.83,19.7-1.99,39.51-2.95,59.23-4.65,10.69-.91,12.7-4.91,6.9-13.69l-.05.03Zm-160.82-138.06c5.04,22.86,16.75,39.4,36.53,49.7,4.15,2.17,6.61,4.62,5.02,9.09-1.99,5.57-6.17,1.65-8.91,1.02-19.13-4.36-32.06-15.81-38.98-34.25-3.55-9.43-2.69-17.4,6.32-25.55h.03Zm-34.52,119.85c-3.63,2.77-7.63,1.28-11.1-.37-3.81-1.8-1.05-4.96-.39-7.19,8.15-27.02,40.66-45.31,68.72-37.89-2.46,4.44-4.62,8.81-9.41,9.07-21.66,1.15-33.37,15.89-44.55,31.51-1.15,1.59-1.8,3.74-3.27,4.86Zm104.98-72.82c-12.59,52.7-42.33,89.8-95.47,106.26-2.22.68-4.6.97-6.95,1.44-.34-18.76.71-19.65,17.48-25.81,41.02-15.13,61.01-47.87,72.72-87.27,1.23-4.1,1.99-8.33,3.06-12.99,10.11,4,11.26,9.64,9.17,18.37h0Z"/>
  <path class="cls-1" d="m380.37,108.5c-9.3-31.75-40.16-44.73-69.76-29.63-9.64,4.91-17.64,11.94-24.85,19.94-14.16,15.73-23.96,34.18-33.5,52.81-1.38,2.69-1.28,7.45-7.21,6.24,8.67-29.39,17.27-58.58,26.31-89.31-13.3,1.62-24.95,3.29-36.68,4.36-4.62.42-5.57,3.29-6.9,6.72-20.75,52.94-51.34,99.29-93.25,138.14-2.14,1.99-7.66,4.21-3.55,8.1,3.24,3.08,5.38-1.75,7.32-3.68,28.53-28.66,55.44-58.55,72.77-95.66.63-1.33.94-3,3.76-2.04-.31,1.36-.6,2.82-1.02,4.26-24.04,83.98-48.08,167.98-72.17,251.96-4.62,16.12-13.77,27.43-32.01,28.35-3.48.18-7.08.91-6.69,4.78.44,4.55,4.96,2.67,7.53,2.51,33.68-2.3,67.36-1.1,101.04.05,3.24.1,8.15,1.65,8.83-3.32.84-6.06-4.78-3.32-7.58-4.08-4.18-1.15-8.62-1.41-12.8-2.56-16.75-4.55-22.42-14.08-18.19-31.09,2.56-10.29,5.62-20.48,8.62-30.67,3.61-12.2,7.37-24.33,11.5-37.83,13.61,24.46,27.04,30.81,52.6,27.7,24.74-3,45.15-14.27,62.5-31.22,32.06-31.3,50.38-70.18,60.91-113.01,6.64-26.99,10.58-54.29,2.53-81.73l-.05-.08Zm-82.72,177.33c-8.44,13.46-18.71,25.5-32.63,33.78-23.52,13.95-47.21,6.61-58.11-17.72-1.49-3.29-2.04-6.24-.99-10.09,14.24-52.52,31.35-103.89,59.29-151.1,9.04-15.31,18.6-30.28,31.72-42.54,8.15-7.63,16.93-15.02,29.39-11.1,12.54,3.92,15.36,15.02,17.32,26,1.18,6.53.94,13.33,1.41,21.45-3.37,53.33-18.08,104.59-47.4,151.28v.03Z"/>
  <path class="cls-1" d="m1397.92,240.39c17.45-41.86,27.25-85.41,29.29-130.67.34-9.12.31-18.21-2.8-26.91-5.8-16.2-18.76-20.01-32.11-9.41-18.86,15.02-37.81,30-56.33,45.41-13.27,11.05-26.62,13.82-42.48,5.04-12.12-6.72-20.93-3.66-24.35,6.53-3.24,9.64,2.46,17.92,14.84,21.29,15.81,4.31,30.65-.44,45.15-5.75,17.17-6.27,32.69-15.89,48.18-25.37,4.02-2.46,6.3-3.29,8.49,2.38,11.52,29.68-.99,53.12-32.27,59.31-32.66,6.45-65.01,14-95.16,28.56-23.31,11.26-45.49,24.48-60.77,46.09-20.09,28.38-11.71,56.75,20.64,69.82,33.63,13.59,67.1,11.57,98.35-6.24,19.99-11.39,37.42-14.45,56.49,1.33,11,9.09,25.14,11.34,39.45,8.96,5.04-.84,10.61-2.51,11.91-8.33,1.18-5.23-2.64-8.91-6.4-11.86-4.34-3.4-9.14-6.22-13.67-9.41-15.47-10.92-19.94-23.2-14.4-41.05,2.09-6.74,5.15-13.19,7.86-19.73h.08Zm-35.27-14.84c-8.07,37.47-63.1,82.15-100.83,81.94-9.3-.1-18.08-2.17-25.79-7.47-18.47-12.75-18.32-36.82,1.33-47.42,34.1-18.42,70.44-31.8,107.7-42.43,12.46-3.55,20.09,3.76,17.58,15.42v-.03Z"/>
  <path class="cls-1" d="m601.18,139.01c-2.87-44.78-27.51-67.31-72.3-65.9-25.71.81-48.02,10.69-66.16,28.24-47.84,46.27-69.37,103.91-67.33,169.36,1.33,42.9,29.47,66.84,70.02,64.56,23.65-1.31,44.99-8.88,62.97-24.43,49.25-42.54,67.65-98.97,72.85-161.21,0-3.55.18-7.11-.03-10.63h-.03Zm-44.78,40c-6.01,35.12-16.33,68.85-33.71,100.2-7.11,12.83-15.57,24.69-26.57,34.57-7.45,6.69-15.76,11.71-25.95,13.46-16.36,2.77-27.77-4-32.87-19.75-3.24-9.98-2.61-20.25-2.74-30.49,2.17-52.23,14.21-101.9,39.04-148.23,6.92-12.93,15.49-24.72,26.44-34.67,6.53-5.93,13.87-10.48,22.44-12.78,18.55-4.96,32.69,2.72,36.63,21.45,5.38,25.48,1.62,50.98-2.72,76.24Z"/>
  <path class="cls-1" d="m1009.57,138.36c-1.46-50.22-36.55-73.6-86.43-63.54-21.35,4.31-39.32,14.4-54.5,29.37-43.03,42.41-60.57,95.6-64.56,154.21,0,4.34-.29,8.7.05,12.99,3.37,42.09,30.52,66.47,71.04,63.86,23.2-1.49,44.44-8.65,61.87-24.14,51.76-46.01,74.57-105.27,72.58-172.79l-.05.05Zm-44.44,42.88c-6.14,34.65-16.46,68.06-33.94,98.9-8.02,14.14-17.35,27.36-30.54,37.31-11.94,8.99-25.24,14.42-39.82,7.86-14.27-6.43-16.28-20.2-16.93-33.99-.24-5.12-.03-10.24-.03-15.36,2.01-51.87,14.06-101.14,38.72-147.08,7.53-13.98,16.7-26.73,29.05-37.02,6.19-5.15,13.09-8.96,20.88-10.84,18.58-4.47,32.06,3.71,35.9,22.78,5.23,25.97,1.25,51.84-3.29,77.44h0Z"/>
</svg>