<?xml version="1.0" encoding="UTF-8"?>
<svg id="Capa_2" data-name="Capa 2" xmlns="http://www.w3.org/2000/svg" viewBox="0 0 2207.74 304.06">
  <defs>
    <style>
      .cls-1 {
        fill: #5c2582;
      }
    </style>
  </defs>
  <path class="cls-1" d="m78.05,111c15.51.16,31.02.31,46.52.47,41.83.42,83.66.84,125.49,1.26,62.26.63,124.52,1.25,186.78,1.88,75.44.76,150.88,1.52,226.32,2.28,83.19.84,166.38,1.67,249.57,2.51s166.81,1.68,250.22,2.52c78.3.79,156.6,1.57,234.9,2.36,65.72.66,131.45,1.32,197.17,1.98,47.59.48,95.17.96,142.76,1.44,22.38.23,44.81.87,67.19.68.98,0,1.96.02,2.94.03,23.17.23,23.19-35.77,0-36-15.51-.16-31.02-.31-46.52-.47-41.83-.42-83.66-.84-125.49-1.26-62.26-.63-124.52-1.25-186.78-1.88-75.44-.76-150.88-1.52-226.32-2.28-83.19-.84-166.38-1.67-249.57-2.51-83.41-.84-166.81-1.68-250.22-2.52-78.3-.79-156.6-1.57-234.9-2.36-65.72-.66-131.45-1.32-197.17-1.98-47.59-.48-95.17-.96-142.76-1.44-22.38-.23-44.81-.87-67.19-.68-.98,0-1.96-.02-2.94-.03-23.17-.23-23.19,35.77,0,36h0Z"/>
  <path class="cls-1" d="m2135.63,174.68c-17.17-.36-34.35-.73-51.52-1.09-46.32-.98-92.64-1.97-138.97-2.95-68.95-1.46-137.9-2.93-206.84-4.39-83.54-1.77-167.09-3.55-250.63-5.32-92.13-1.96-184.25-3.91-276.38-5.87s-184.73-3.92-277.09-5.88c-86.71-1.84-173.42-3.68-260.13-5.52-72.78-1.54-145.57-3.09-218.35-4.63-52.7-1.12-105.4-2.24-158.1-3.35-24.78-.53-49.62-1.56-74.41-1.58-1.08,0-2.17-.05-3.25-.07-23.18-.49-23.17,35.51,0,36,17.17.36,34.35.73,51.52,1.09l138.97,2.95c68.95,1.46,137.9,2.93,206.84,4.39,83.54,1.77,167.09,3.55,250.63,5.32,92.13,1.96,184.25,3.91,276.38,5.87,92.36,1.96,184.73,3.92,277.09,5.88,86.71,1.84,173.42,3.68,260.13,5.52,72.78,1.54,145.57,3.09,218.35,4.63,52.7,1.12,105.4,2.24,158.1,3.35,24.78.53,49.62,1.56,74.41,1.58,1.08,0,2.17.05,3.25.07,23.18.49,23.17-35.51,0-36h0Z"/>
</svg>