<?xml version="1.0" encoding="UTF-8"?>
<svg id="Capa_2" data-name="Capa 2" xmlns="http://www.w3.org/2000/svg" viewBox="0 0 1790 207">
  <defs>
    <style>
      .cls-1 {
        fill: #ef7d00;
      }
    </style>
  </defs>
  <path class="cls-1" d="m1735.22,113.2c-15.93-2-32.06-2.56-48.09-3.01-23.6-.67-47.22-.73-70.84-.59-14.55.09-29.1.26-43.65.49.22-.49.35-1.02.38-1.59,10.23-.24,20.47-.5,30.7-.8,5.78-.17,5.8-9.17,0-9-47.78,1.4-95.58,2.14-143.38,2.57-36.16.32-72.32.45-108.48.45-4.11-.09-8.21-.15-12.32-.16-.45,0-.85.07-1.23.17-14.32-.01-28.64-.04-42.96-.09-14.94-.05-29.88-.12-44.83-.2-2.84-2.66-6.56-4.3-10.78-4.1-26.7,1.31-53.4,2.43-80.11,3.38-14.19-.14-28.37-.29-42.56-.45-61.08-.7-122.16-1.62-183.24-2.68-59.67-1.04-119.34-2.23-179.01-3.53-44.45-.97-88.9-2.02-133.35-3.12-16.32-1.27-32.65-2.34-49-2.96-24.42-.92-48.86-.75-73.28-.18-20.32-.55-40.63-1.1-60.95-1.67-40.01-1.12-80.01-2.29-120.02-3.5-27.8-.84-55.61-1.71-83.41-2.6-12.54-.4-25.15-1.25-37.7-1.26-2.55-.48-5.11-.98-7.66-1.49-1.05-.21-2.17-.08-3.14.35-1.76-.24-3.59.33-4.51,2.08-.66,1.26-.75,3.02-.12,4.39.1.36.24.72.46,1.06,2.34,3.69,5.21,6.82,8.42,9.51.43.62,1.04,1.14,1.87,1.49,7.93,5.96,17.73,9.44,27.52,11.41,1.21.73,2.42,1.44,3.65,2.14-5.76-.87-11.51-1.86-17.22-3.04-5.9-1.21-11.78-2.61-17.55-4.34-2.22-.66-4.43-1.37-6.61-2.15-.94-.34-1.88-.68-2.81-1.05l-1.29-.51c-.12-.05-.23-.1-.35-.14-2.44-1.06-4.84-2.2-7.11-3.59-.73-.45-1.44-.92-2.13-1.42.1.09.21.17.34.28-.13-.11-.26-.2-.39-.31,0,0-.02-.01-.02-.02-.01,0-.03-.02-.04-.03-.33-.24-.78-.65-.21-.19-.12-.1-.25-.21-.37-.31-.3-.27-.58-.56-.85-.85h-.01c-1.35-1.72-3.93-2.45-5.84-1.21-2.02,1.3-2.92,4.01-1.61,6.16.39.64.92,1.25,1.46,1.79,1.15,1.17,2.51,2.16,3.87,3.07,1.98,1.34,4.11,2.46,6.28,3.47,3.78,1.76,7.69,3.25,11.65,4.55,5.28,1.73,10.67,3.14,16.09,4.37,3,.68,6.01,1.29,9.03,1.87-12.86-.41-25.71-.83-38.57-1.24-1.89-.06-3.68,1.34-4.28,3.12-15.58-2.81-31.05-6.19-46.38-10.16-2.09-.54-4.18-1.09-6.26-1.66-2.27-.61-4.99.76-5.54,3.14-.54,2.37.71,4.88,3.14,5.54,16.68,4.49,33.54,8.31,50.54,11.44,10.14,1.86,20.32,3.48,30.54,4.86-5.13-.21-10.25-.43-15.38-.69-14.34-.73-28.68-1.67-42.99-2.89-11.01-.94-22.02-2.04-32.99-3.38-2.23-.27-4.46-.55-6.68-.84-.51-.07-1.01-.13-1.52-.2-.23-.03-.47-.06-.7-.1-1.01-.14-2.02-.28-3.02-.42-3.52-.5-7.04-1.02-10.55-1.59-4.83-.78-9.65-1.62-14.44-2.59-2-.4-3.98-.9-5.98-1.31-.08-.02-.16-.04-.23-.06-5.61-1.44-8.01,7.24-2.39,8.68,1.32.34,2.66.62,4,.91,4.12.88,8.26,1.64,12.41,2.34,7.37,1.26,14.77,2.32,22.18,3.3,10.2,1.34,20.43,2.46,30.67,3.43,13.45,1.27,26.93,2.27,40.42,3.07,16.92,1,33.86,1.69,50.8,2.14,20.56.54,41.13.72,61.7.62,24.5-.12,49-.65,73.48-1.51,28.38-.99,56.75-2.42,85.09-4.2,10.68-.67,21.36-1.42,32.04-2.19,67.93-1.49,135.85-3.13,203.78-4.2,5.9-.09,11.8-.17,17.7-.23,48.27,3.44,96.53,5.8,144.99,6.83,40.46.86,80.94,1.29,121.41,1.29,4.44.33,8.87.66,13.31,1.01-.88.21-1.76.41-2.64.63-2.29.56-3.88,3.27-3.14,5.54.77,2.37,3.08,3.74,5.54,3.14,5.37-1.32,10.77-2.48,16.2-3.49,2.65-.49,5.3-.94,7.96-1.35.58.26,1.26.41,2.06.36,5.56-.32,11.12-.63,16.69-.95.5-.03,1.01-.05,1.51-.08,6.54.61,13.08,1.23,19.62,1.89,1.96.2,3.69-1.39,4.28-3.2,4.51-.25,9.02-.5,13.52-.74.44.02.89.04,1.33.07.5.03.99-.06,1.46-.22,1.47-.08,2.93-.16,4.4-.24,22.97-1.23,45.95-2.43,68.93-3.6,28.66-1.46,57.32-2.87,85.98-4.22.24,0,.47-.02.71-.03.55.24,1.14.38,1.76.39,29.52.33,59.04-.19,88.53-1.57,8.41-.39,16.81-.86,25.21-1.39,1.8-.11,3.41-1.14,4.12-2.71,25.31-1.04,50.63-2.04,75.94-2.95,32.83-1.18,65.67-2.24,98.51-3.11,29.9-.79,59.81-1.42,89.73-1.76,25.12-.28,50.25-.37,75.37.07,18.05.31,36.15.78,54.13,2.38,3.11.28,6.22.6,9.32.98,5.73.72,5.68-8.29,0-9h-.02ZM91.48,123.15c-.58-.08-.37-.05,0,0h0Zm1278.01-11.15c-1.67,0-3.34-.02-5.01-.03-.2-.31-.43-.59-.69-.84,5.36.22,10.72.51,16.07.87-3.46,0-6.91,0-10.36,0h-.01Z"/>
</svg>