<?xml version="1.0" encoding="UTF-8"?>
<svg id="Capa_2" data-name="Capa 2" xmlns="http://www.w3.org/2000/svg" viewBox="0 0 2207.74 304.06">
  <defs>
    <style>
      .cls-1 {
        fill: #ef7d00;
      }
    </style>
  </defs>
  <path class="cls-1" d="m213.94,134.77h843.36c84.99,0,169.98,0,254.97,0,78.71,0,157.41,0,236.12,0h344.22c22.67,0,45.38.36,68.05,0,.99-.02,1.98,0,2.98,0,30.89,0,30.94-48,0-48H284.97c-22.67,0-45.38-.36-68.05,0-.99.02-1.98,0-2.98,0-30.89,0-30.94,48,0,48h0Z"/>
  <path class="cls-1" d="m476.16,264.26c9.74-.26,19.48-.5,29.22-.74,26.65-.66,53.3-1.29,79.95-1.9,39.69-.91,79.38-1.77,119.08-2.58,48.87-1,97.74-1.93,146.62-2.78,54.19-.94,108.38-1.79,162.57-2.5,55.64-.74,111.28-1.34,166.93-1.74,53.23-.39,106.46-.6,159.69-.5,46.96.09,93.92.39,140.87,1.22,36.83.64,73.67,1.53,110.46,3.41,13.41.69,26.82,1.5,40.2,2.68,5.31.47,10.62.99,15.92,1.64,1.09.13,2.19.28,3.28.41-1.59-.2-7.77-1.09-2.73-.35,1.96.29,3.93.59,5.88.94,2.96.53,5.92,1.13,8.82,1.94,12.08,3.4,26.66-4.17,29.52-16.76s-3.83-25.88-16.76-29.52c-19.82-5.58-41.59-6.31-62.03-7.69-33.53-2.25-67.15-3.27-100.75-4.06-44.89-1.06-89.8-1.52-134.7-1.74-52-.26-104.01-.17-156.02.11-55.4.3-110.79.81-166.19,1.47-55.12.66-110.25,1.46-165.37,2.36-50.57.83-101.13,1.76-151.69,2.76-42.49.84-84.98,1.74-127.46,2.69-30.22.68-60.44,1.38-90.66,2.11-14.26.35-28.54.52-42.79,1.07-.62.02-1.24.03-1.86.05-12.54.33-24.59,10.8-24,24s10.56,24.35,24,24h0Z"/>
</svg>