<?xml version="1.0" encoding="UTF-8"?>
<svg id="Capa_2" data-name="Capa 2" xmlns="http://www.w3.org/2000/svg" viewBox="0 0 2207.74 304.06">
  <defs>
    <style>
      .cls-1 {
        fill: #ef7d00;
      }
    </style>
  </defs>
  <path class="cls-1" d="m229.87,173.03c12.5-.1,24.99-.2,37.49-.3,33.71-.27,67.41-.53,101.12-.8,50.17-.4,100.34-.79,150.51-1.19,60.79-.48,121.58-.96,182.37-1.44,67.03-.53,134.07-1.06,201.1-1.59,67.21-.53,134.42-1.06,201.62-1.6,63.09-.5,126.19-1,189.28-1.5,52.96-.42,105.92-.84,158.88-1.26,38.35-.3,76.69-.61,115.04-.91,18.04-.14,36.11-.03,54.14-.43.79-.02,1.58-.01,2.37-.02,10.98-.09,21.51-9.6,21-21s-9.23-21.09-21-21c-12.5.1-24.99.2-37.49.3-33.71.27-67.41.53-101.12.8-50.17.4-100.34.79-150.51,1.19-60.79.48-121.58.96-182.37,1.44-67.03.53-134.07,1.06-201.1,1.59-67.21.53-134.42,1.06-201.62,1.6-63.09.5-126.19,1-189.28,1.5-52.96.42-105.92.84-158.88,1.26-38.35.3-76.69.61-115.04.91-18.04.14-36.11.03-54.14.43-.79.02-1.58.01-2.37.02-10.98.09-21.51,9.6-21,21s9.23,21.09,21,21h0Z"/>
  <path class="cls-1" d="m724.79,204c9.78,0,19.56.02,29.34.04,26.71.04,53.43.09,80.14.14,39.7.08,79.41.18,119.11.3,48.75.14,97.5.31,146.25.51,53.86.22,107.71.47,161.57.77,55.02.3,110.04.65,165.06,1.08,52.06.4,104.12.86,156.19,1.43,45.55.5,91.11,1.07,136.66,1.84,34.91.59,69.82,1.25,104.71,2.3,20.3.61,40.7,1.02,60.94,2.81,1.27.11,2.54.25,3.81.37.52.05,1.03.13,1.55.18,2.61.26-7.51-1.07-3.92-.52,10.81,1.66,23.11-2.73,25.83-14.67,2.28-10.02-3.06-24.05-14.67-25.83-17.63-2.7-35.62-3.03-53.41-3.68-31.55-1.15-63.12-1.82-94.69-2.42-43.21-.83-86.43-1.43-129.65-1.95-51.12-.62-102.24-1.11-153.36-1.54-54.5-.45-109-.83-163.5-1.16s-109.43-.6-164.14-.84c-50.38-.22-100.76-.41-151.14-.57-42.31-.14-84.62-.25-126.92-.35-30.38-.07-60.75-.13-91.13-.18-14.26-.02-28.54-.26-42.81-.06-.61,0-1.22,0-1.83,0-10.98-.01-21.51,9.67-21,21s9.23,20.99,21,21h0Z"/>
</svg>